<svg viewBox="0 0 25 25" class="styles___SvgWrapper-sc-uv7ajp-0 hbZYhG svg-icon" xmlns="http://www.w3.org/2000/svg" xmlns:xlink="http://www.w3.org/1999/xlink" style="width: 24px;"><g fill="none" fill-rule="evenodd"><path fill="#000" d="M15.51,3.10363247 C15.4025,2.11213247 16.186,1.25163247 16.2755,1.15663247 C16.465,0.955632469 16.782,0.947132469 16.982,1.13663247 C17.183,1.32663247 17.192,1.64313247 17.002,1.84363247 C16.8475,2.00963247 16.454,2.54413247 16.5045,2.99863247 C16.5295,3.22063247 16.6655,3.41313247 16.9205,3.58663247 C17.55,4.01563247 17.7285,4.53613247 17.768,4.89663247 C17.875,5.88813247 17.092,6.74863247 17.002,6.84363247 C16.904,6.94763247 16.7715,7.00013247 16.639,7.00013247 C16.5155,7.00013247 16.392,6.95463247 16.2955,6.86363247 C16.095,6.67413247 16.0855,6.35813247 16.2745,6.15713247 C16.4315,5.98913247 16.824,5.45563247 16.773,5.00163247 C16.7485,4.77963247 16.6125,4.58713247 16.357,4.41363247 C15.728,3.98463247 15.549,3.46413247 15.51,3.10363247 M11.788,3.10363247 C11.6805,2.11213247 12.4635,1.25163247 12.5535,1.15663247 C12.743,0.955632469 13.06,0.947132469 13.26,1.13663247 C13.4605,1.32663247 13.47,1.64313247 13.28,1.84363247 C13.125,2.00963247 12.7315,2.54413247 12.7825,2.99863247 C12.8075,3.22063247 12.943,3.41313247 13.1985,3.58663247 C13.828,4.01563247 14.0065,4.53613247 14.0455,4.89663247 C14.153,5.88813247 13.37,6.74863247 13.28,6.84363247 C13.182,6.94763247 13.0495,7.00013247 12.9165,7.00013247 C12.793,7.00013247 12.6695,6.95463247 12.5735,6.86363247 C12.373,6.67413247 12.3635,6.35813247 12.5525,6.15713247 C12.709,5.98913247 13.102,5.45563247 13.051,5.00163247 C13.026,4.77963247 12.8905,4.58713247 12.635,4.41363247 C12.0055,3.98463247 11.827,3.46413247 11.788,3.10363247 M7.51,3.10363247 C7.4025,2.11213247 8.186,1.25163247 8.2755,1.15663247 C8.465,0.955632469 8.782,0.947132469 8.982,1.13663247 C9.183,1.32663247 9.192,1.64313247 9.002,1.84363247 C8.8475,2.00963247 8.454,2.54413247 8.5045,2.99863247 C8.5295,3.22063247 8.6655,3.41313247 8.9205,3.58663247 C9.55,4.01563247 9.7285,4.53613247 9.768,4.89663247 C9.875,5.88813247 9.092,6.74863247 9.002,6.84363247 C8.904,6.94763247 8.7715,7.00013247 8.639,7.00013247 C8.5155,7.00013247 8.392,6.95463247 8.2955,6.86363247 C8.095,6.67413247 8.0855,6.35813247 8.2745,6.15713247 C8.4315,5.98913247 8.824,5.45563247 8.773,5.00163247 C8.7485,4.77963247 8.6125,4.58713247 8.357,4.41363247 C7.728,3.98463247 7.549,3.46413247 7.51,3.10363247 M12.5,16.0001325 C8.533,16.0001325 5.275,12.9031325 5.017,9.00013247 L19.9835,9.00013247 C19.7255,12.9031325 16.4675,16.0001325 12.5,16.0001325 M21.5,8.00013247 L3.5,8.00013247 C3.224,8.00013247 3,8.22413247 3,8.50013247 C3,8.77613247 3.224,9.00013247 3.5,9.00013247 L4.0255,9.00013247 C4.213,12.1956325 6.1675,14.9171325 8.929,16.2026325 L7.0175,23.3711325 C6.946,23.6381325 7.1045,23.9121325 7.3715,23.9831325 C7.415,23.9946325 7.458,24.0001325 7.5005,24.0001325 C7.7215,24.0001325 7.9235,23.8526325 7.983,23.6291325 L9.864,16.5766325 C10.695,16.8486325 11.5795,17.0001325 12.5,17.0001325 C13.421,17.0001325 14.3055,16.8486325 15.1365,16.5766325 L17.0175,23.6291325 C17.077,23.8526325 17.279,24.0001325 17.4995,24.0001325 C17.5425,24.0001325 17.5855,23.9946325 17.629,23.9831325 C17.8955,23.9121325 18.0545,23.6381325 17.983,23.3711325 L16.0715,16.2026325 C18.833,14.9171325 20.7875,12.1956325 20.975,9.00013247 L21.5,9.00013247 C21.7765,9.00013247 22,8.77613247 22,8.50013247 C22,8.22413247 21.7765,8.00013247 21.5,8.00013247"></path></g></svg>