<svg
        viewBox="0 0 25 25"
        class="styles___SvgWrapper-sc-uv7ajp-0 hbZYhG svg-icon"
        xmlns="http://www.w3.org/2000/svg"
        xmlns:xlink="http://www.w3.org/1999/xlink"
        style="width: 24px;"
      >
        <g fill="none" fill-rule="evenodd">
          <path
            fill="#000"
            d="M19,16 L23,16 L23,15 L19,15 L19,16 Z M17,16 L18,16 L18,15 L17,15 L17,16 Z M6,11 L19,11 L19,10 L6,10 L6,11 Z M7,16 L8,16 L8,15 L7,15 L7,16 Z M2,16 L6,16 L6,15 L2,15 L2,16 Z M23.5,4 C23.224,4 23,4.2235 23,4.5 L23,14 L19,14 L19,12 L19.5,12 C19.776,12 20,11.7765 20,11.5 L20,9.5 C20,9.2235 19.776,9 19.5,9 L5.5,9 C5.224,9 5,9.2235 5,9.5 L5,11.5 C5,11.7765 5.224,12 5.5,12 L6,12 L6,14 L2,14 L2,4.5 C2,4.2235 1.776,4 1.5,4 C1.224,4 1,4.2235 1,4.5 L1,20.5 C1,20.7765 1.224,21 1.5,21 C1.776,21 2,20.7765 2,20.5 L2,17 L6,17 L6,20.5 C6,20.7765 6.224,21 6.5,21 C6.776,21 7,20.7765 7,20.5 L7,17 L8,17 L8,20.5 C8,20.7765 8.224,21 8.5,21 C8.776,21 9,20.7765 9,20.5 L9,14.5 C9,14.2235 8.776,14 8.5,14 L7,14 L7,12 L18,12 L18,14 L16.5,14 C16.224,14 16,14.2235 16,14.5 L16,20.5 C16,20.7765 16.224,21 16.5,21 C16.776,21 17,20.7765 17,20.5 L17,17 L18,17 L18,20.5 C18,20.7765 18.224,21 18.5,21 C18.776,21 19,20.7765 19,20.5 L19,17 L23,17 L23,20.5 C23,20.7765 23.224,21 23.5,21 C23.776,21 24,20.7765 24,20.5 L24,4.5 C24,4.2235 23.776,4 23.5,4 Z"
          ></path>
        </g>
      </svg>