<svg width="52" height="55" viewBox="0 0 52 55" fill="none" xmlns="http://www.w3.org/2000/svg">
<path d="M22.1062 1.95107C21.5809 1.78042 21.2935 1.21627 21.4641 0.691015C21.6348 0.165754 22.1989 -0.12171 22.7242 0.0489407L22.1062 1.95107ZM35.3097 23.343L34.3372 23.11L35.3097 23.343ZM1.21797 30.4417L0.2429 30.6636L1.21797 30.4417ZM45.7811 54.6244C45.4362 55.0558 44.807 55.126 44.3756 54.7811L37.3455 49.1616C36.9141 48.8168 36.844 48.1875 37.1888 47.7561C37.5336 47.3247 38.1629 47.2546 38.5943 47.5994L44.8432 52.5945L49.8383 46.3456C50.1832 45.9142 50.8124 45.844 51.2438 46.1889C51.6752 46.5337 51.7454 47.163 51.4005 47.5944L45.7811 54.6244ZM22.7242 0.0489407C34.7799 3.96574 38.2183 15.4917 36.2822 23.5759L34.3372 23.11C36.0814 15.8273 32.974 5.48192 22.1062 1.95107L22.7242 0.0489407ZM36.2822 23.5759C33.6332 34.6367 25.4828 39.9741 17.5795 40.777C9.79383 41.568 1.89491 37.923 0.2429 30.6636L2.19304 30.2198C3.53147 36.1013 10.136 39.5229 17.3774 38.7873C24.5011 38.0636 31.9013 33.2812 34.3372 23.11L36.2822 23.5759ZM0.2429 30.6636C-0.263392 28.4388 0.0323633 26.4628 1.0342 24.8391C2.02553 23.2324 3.64318 22.075 5.59882 21.3377C9.49026 19.8705 14.9406 19.9738 20.5259 21.7077C31.7483 25.1918 43.9307 35.3883 45.9938 53.8892L44.0061 54.1108C42.0435 36.5103 30.5083 26.9009 19.9329 23.6178C14.6193 21.9682 9.65054 21.9475 6.30437 23.2091C4.64119 23.8361 3.43539 24.7562 2.73628 25.8893C2.04768 27.0053 1.78603 28.4313 2.19304 30.2198L0.2429 30.6636Z" fill="#FF0000"/>
</svg>
