<svg xmlns="http://www.w3.org/2000/svg" xmlns:xlink="http://www.w3.org/1999/xlink" width="1337" zoomAndPan="magnify" viewBox="0 0 1002.75 450.749984" height="601" preserveAspectRatio="xMidYMid meet" version="1.0"><defs><g/><clipPath id="23f3aa7222"><path d="M 0.152344 0 L 1002.347656 0 L 1002.347656 450.5 L 0.152344 450.5 Z M 0.152344 0 " clip-rule="nonzero"/></clipPath></defs><g clip-path="url(#23f3aa7222)"><path fill="#ffffff" d="M 0.152344 0 L 1002.347656 0 L 1002.347656 450.5 L 0.152344 450.5 Z M 0.152344 0 " fill-opacity="1" fill-rule="nonzero"/></g><g fill="#000000" fill-opacity="1"><g transform="translate(103.128377, 285.252656)"><g><path d="M 12.609375 -134.921875 L 44.359375 -134.921875 L 44.359375 -17.5 C 44.359375 -13.96875 44.867188 -11.59375 45.890625 -10.375 C 46.910156 -9.15625 48.773438 -8.546875 51.484375 -8.546875 L 55.359375 -8.546875 L 55.15625 20.75 L 47.21875 20.75 C 40.96875 20.75 35.640625 20.101562 31.234375 18.8125 C 26.828125 17.53125 23.234375 15.394531 20.453125 12.40625 C 17.671875 9.425781 15.664062 5.492188 14.4375 0.609375 C 13.21875 -4.273438 12.609375 -10.3125 12.609375 -17.5 Z M 12.609375 -134.921875 "/></g></g></g><g fill="#000000" fill-opacity="1"><g transform="translate(161.328809, 285.252656)"><g><path d="M 69.1875 -71.421875 C 62.539062 -71.554688 56.910156 -70.503906 52.296875 -68.265625 C 47.679688 -66.035156 44.289062 -62.75 42.125 -58.40625 C 41.039062 -55.414062 40.328125 -52.800781 39.984375 -50.5625 C 39.648438 -48.332031 39.414062 -45.65625 39.28125 -42.53125 C 39.28125 -38.726562 39.445312 -35.265625 39.78125 -32.140625 C 40.125 -29.023438 40.90625 -26.242188 42.125 -23.796875 C 43.34375 -21.359375 45.101562 -19.191406 47.40625 -17.296875 C 49.71875 -15.398438 52.773438 -13.835938 56.578125 -12.609375 C 57.523438 -12.472656 58.675781 -12.335938 60.03125 -12.203125 C 61.382812 -12.066406 62.878906 -12 64.515625 -12 C 66.410156 -11.863281 68.066406 -11.828125 69.484375 -11.890625 C 70.910156 -11.960938 72.171875 -12.132812 73.265625 -12.40625 C 76.921875 -13.363281 79.832031 -14.859375 82 -16.890625 C 84.175781 -18.921875 85.835938 -21.257812 86.984375 -23.90625 C 88.140625 -26.550781 88.851562 -29.429688 89.125 -32.546875 C 89.40625 -35.671875 89.546875 -38.863281 89.546875 -42.125 C 89.546875 -45.65625 89.335938 -49.179688 88.921875 -52.703125 C 88.515625 -56.234375 87.632812 -59.390625 86.28125 -62.171875 C 84.925781 -64.953125 82.890625 -67.1875 80.171875 -68.875 C 77.460938 -70.570312 73.800781 -71.421875 69.1875 -71.421875 Z M 53.71875 -93.40625 C 55.625 -93.8125 59.085938 -94.015625 64.109375 -94.015625 C 84.179688 -94.015625 98.894531 -89.398438 108.25 -80.171875 C 117.613281 -70.953125 122.296875 -56.4375 122.296875 -36.625 C 122.296875 -24.007812 120.332031 -13.632812 116.40625 -5.5 C 112.875 1.832031 107.613281 7.769531 100.625 12.3125 C 93.644531 16.851562 85.539062 19.800781 76.3125 21.15625 C 75.09375 21.300781 73.394531 21.40625 71.21875 21.46875 C 69.050781 21.539062 66.816406 21.578125 64.515625 21.578125 C 62.742188 21.578125 61.144531 21.578125 59.71875 21.578125 C 58.300781 21.578125 57.117188 21.4375 56.171875 21.15625 C 42.460938 19.394531 31.539062 14.515625 23.40625 6.515625 C 17.4375 0.679688 13.296875 -6.164062 10.984375 -14.03125 C 8.679688 -21.90625 7.867188 -31.742188 8.546875 -43.546875 C 8.816406 -47.617188 9.222656 -51.210938 9.765625 -54.328125 C 10.304688 -57.453125 11.019531 -60.300781 11.90625 -62.875 C 12.789062 -65.457031 13.941406 -67.832031 15.359375 -70 C 16.785156 -72.175781 18.445312 -74.28125 20.34375 -76.3125 C 28.757812 -85.40625 39.882812 -91.101562 53.71875 -93.40625 Z M 53.71875 -93.40625 "/></g></g></g><g fill="#000000" fill-opacity="1"><g transform="translate(291.771021, 285.252656)"><g><path d="M 5.296875 -93 L 37.84375 -93 L 38.046875 -91.78125 C 38.191406 -91.101562 38.332031 -90.421875 38.46875 -89.734375 C 38.601562 -89.054688 38.738281 -88.3125 38.875 -87.5 C 39.957031 -78.6875 41.242188 -69.53125 42.734375 -60.03125 C 44.222656 -50.53125 45.851562 -40.695312 47.625 -30.53125 C 48.03125 -27.8125 48.46875 -25.023438 48.9375 -22.171875 C 49.414062 -19.328125 49.925781 -16.550781 50.46875 -13.84375 L 50.875 -13.03125 L 51.28125 -13.84375 C 51.414062 -14.113281 51.582031 -14.484375 51.78125 -14.953125 C 51.988281 -15.429688 52.226562 -16.078125 52.5 -16.890625 C 52.632812 -17.296875 52.867188 -18.070312 53.203125 -19.21875 C 53.546875 -20.375 53.785156 -21.296875 53.921875 -21.984375 C 54.191406 -22.929688 54.460938 -23.878906 54.734375 -24.828125 C 55.015625 -25.773438 55.289062 -26.789062 55.5625 -27.875 C 55.832031 -28.957031 56.101562 -30.039062 56.375 -31.125 C 56.644531 -32.21875 56.914062 -33.441406 57.1875 -34.796875 C 58.539062 -39.953125 60.234375 -46.5 62.265625 -54.4375 C 64.304688 -62.375 66.476562 -71.972656 68.78125 -83.234375 L 69.59375 -87.09375 L 86.28125 -87.296875 C 91.84375 -87.296875 95.976562 -87.257812 98.6875 -87.1875 C 101.40625 -87.125 102.832031 -87.09375 102.96875 -87.09375 C 103.101562 -86.820312 103.269531 -86.144531 103.46875 -85.0625 C 103.675781 -83.976562 104.050781 -82.488281 104.59375 -80.59375 C 104.863281 -79.632812 105.238281 -78.101562 105.71875 -76 C 106.195312 -73.90625 106.84375 -71.09375 107.65625 -67.5625 C 108.332031 -64.84375 108.941406 -62.429688 109.484375 -60.328125 C 110.023438 -58.234375 110.5 -56.367188 110.90625 -54.734375 C 111.851562 -51.347656 112.867188 -47.648438 113.953125 -43.640625 C 115.046875 -39.640625 116.269531 -35.269531 117.625 -30.53125 C 118.976562 -25.644531 120.023438 -21.84375 120.765625 -19.125 C 121.515625 -16.414062 122.023438 -14.789062 122.296875 -14.25 C 122.429688 -13.84375 122.632812 -13.640625 122.90625 -13.640625 C 123.59375 -14.046875 126.851562 -36.429688 132.6875 -80.796875 C 133.226562 -84.179688 133.597656 -86.820312 133.796875 -88.71875 C 134.003906 -90.625 134.175781 -91.78125 134.3125 -92.1875 L 134.71875 -93 L 166.671875 -93 C 167.078125 -92.59375 166.054688 -85.398438 163.609375 -71.421875 C 159.140625 -43.753906 155.546875 -22.351562 152.828125 -7.21875 C 150.117188 7.90625 148.421875 16.820312 147.734375 19.53125 L 147.53125 20.75 L 125.96875 20.75 C 111.582031 20.75 104.320312 20.679688 104.1875 20.546875 C 104.050781 20.410156 102.796875 15.1875 100.421875 4.875 C 98.046875 -5.425781 94.285156 -21.09375 89.140625 -42.125 C 87.910156 -47.414062 87.09375 -50.265625 86.6875 -50.671875 C 86.414062 -50.265625 85.195312 -45.109375 83.03125 -35.203125 C 82.757812 -33.847656 82.316406 -32.050781 81.703125 -29.8125 C 81.097656 -27.570312 80.453125 -25.03125 79.765625 -22.1875 C 78.410156 -16.351562 77.460938 -12.6875 76.921875 -11.1875 C 76.378906 -9.019531 75.734375 -6.304688 74.984375 -3.046875 C 74.242188 0.203125 73.332031 4 72.25 8.34375 C 71.425781 11.875 70.773438 14.550781 70.296875 16.375 C 69.828125 18.207031 69.523438 19.257812 69.390625 19.53125 L 68.984375 20.75 L 48.03125 20.75 L 27.0625 20.546875 L 26.65625 19.125 C 26.382812 18.039062 26.078125 16.785156 25.734375 15.359375 C 25.398438 13.941406 25.097656 12.28125 24.828125 10.375 C 24.554688 9.5625 24.351562 8.546875 24.21875 7.328125 C 24.082031 6.109375 23.8125 4.613281 23.40625 2.84375 C 23 1.082031 22.691406 -0.367188 22.484375 -1.515625 C 22.285156 -2.671875 22.117188 -3.519531 21.984375 -4.0625 C 19.398438 -16.28125 17.226562 -26.929688 15.46875 -36.015625 C 13.707031 -45.109375 12.28125 -52.773438 11.1875 -59.015625 C 10.914062 -60.097656 10.644531 -61.554688 10.375 -63.390625 C 10.101562 -65.222656 9.695312 -67.359375 9.15625 -69.796875 C 9.019531 -70.472656 8.847656 -71.421875 8.640625 -72.640625 C 8.441406 -73.867188 8.207031 -75.125 7.9375 -76.40625 C 7.664062 -77.695312 7.425781 -78.882812 7.21875 -79.96875 C 7.019531 -81.0625 6.921875 -81.8125 6.921875 -82.21875 C 6.648438 -83.164062 6.378906 -84.484375 6.109375 -86.171875 C 5.835938 -87.867188 5.632812 -89.0625 5.5 -89.75 C 5.226562 -91.78125 5.160156 -92.863281 5.296875 -93 Z M 5.296875 -93 "/></g></g></g><g fill="#000000" fill-opacity="1"><g transform="translate(463.726809, 285.252656)"><g><path d="M 73.875 -94.421875 C 76.3125 -95.097656 77.597656 -95.4375 77.734375 -95.4375 C 78.273438 -95.4375 78.546875 -94.757812 78.546875 -93.40625 L 78.546875 -81.609375 C 78.546875 -72.109375 78.476562 -67.15625 78.34375 -66.75 C 78.207031 -66.207031 76.851562 -65.734375 74.28125 -65.328125 C 71.425781 -64.921875 68.503906 -64.34375 65.515625 -63.59375 C 62.535156 -62.84375 59.722656 -61.789062 57.078125 -60.4375 C 54.429688 -59.082031 51.988281 -57.382812 49.75 -55.34375 C 47.507812 -53.3125 45.710938 -50.941406 44.359375 -48.234375 L 42.734375 -44.96875 L 42.734375 20.953125 L 12.203125 20.953125 L 12.203125 -41.71875 L 12.40625 -93.40625 L 41.71875 -93.40625 L 41.71875 -73.671875 C 41.851562 -73.671875 43.207031 -74.957031 45.78125 -77.53125 C 53.925781 -85.675781 63.289062 -91.304688 73.875 -94.421875 Z M 73.875 -94.421875 "/></g></g></g><g fill="#000000" fill-opacity="1"><g transform="translate(545.329512, 285.252656)"><g><path d="M 12.203125 -93.203125 L 43.140625 -93.203125 L 43.140625 20.75 L 12.203125 20.75 Z M 12.203125 -136.34375 L 43.140625 -136.34375 L 43.140625 -111.109375 L 12.203125 -111.109375 Z M 12.203125 -136.34375 "/></g></g></g><g fill="#000000" fill-opacity="1"><g transform="translate(600.680992, 285.252656)"><g><path d="M 42.53125 -92.59375 C 44.15625 -92.863281 47.171875 -93.132812 51.578125 -93.40625 C 55.992188 -93.675781 62.472656 -93.8125 71.015625 -93.8125 C 75.222656 -93.8125 79.429688 -93.707031 83.640625 -93.5 C 87.847656 -93.300781 92.050781 -93.066406 96.25 -92.796875 L 96.25 -67.96875 C 96.113281 -67.695312 95.398438 -67.695312 94.109375 -67.96875 C 92.828125 -68.238281 91.097656 -68.507812 88.921875 -68.78125 C 77.804688 -70.675781 67.023438 -71.625 56.578125 -71.625 C 51.554688 -71.625 47.890625 -71.285156 45.578125 -70.609375 C 41.648438 -69.253906 39.003906 -67.390625 37.640625 -65.015625 C 36.285156 -62.640625 36.492188 -60.4375 38.265625 -58.40625 C 39.753906 -56.914062 41.582031 -55.757812 43.75 -54.9375 C 45.789062 -53.988281 51.351562 -52.160156 60.4375 -49.453125 C 66.8125 -47.546875 72.132812 -45.847656 76.40625 -44.359375 C 80.6875 -42.867188 83.976562 -41.515625 86.28125 -40.296875 C 96.050781 -35.546875 101.816406 -29.304688 103.578125 -21.578125 C 103.847656 -20.617188 104.015625 -19.359375 104.078125 -17.796875 C 104.148438 -16.242188 104.148438 -14.617188 104.078125 -12.921875 C 104.015625 -11.222656 103.878906 -9.5625 103.671875 -7.9375 C 103.472656 -6.3125 103.238281 -4.953125 102.96875 -3.859375 C 101.613281 1.148438 99.34375 5.25 96.15625 8.4375 C 92.96875 11.632812 89.300781 14.179688 85.15625 16.078125 C 81.019531 17.972656 76.613281 19.289062 71.9375 20.03125 C 67.257812 20.78125 62.613281 21.15625 58 21.15625 C 53.519531 21.15625 49.039062 20.984375 44.5625 20.640625 C 40.082031 20.304688 35.675781 19.664062 31.34375 18.71875 C 30.800781 18.582031 29.34375 18.207031 26.96875 17.59375 C 24.59375 16.988281 22.046875 16.378906 19.328125 15.765625 C 16.617188 15.160156 14.175781 14.585938 12 14.046875 C 9.832031 13.503906 8.679688 13.234375 8.546875 13.234375 C 8.679688 13.234375 10.242188 6.3125 13.234375 -7.53125 L 14.046875 -11.1875 L 15.46875 -10.984375 C 15.601562 -10.984375 16.347656 -10.8125 17.703125 -10.46875 C 19.054688 -10.132812 20.207031 -9.898438 21.15625 -9.765625 C 25.769531 -8.679688 30.347656 -7.832031 34.890625 -7.21875 C 39.441406 -6.613281 44.023438 -6.378906 48.640625 -6.515625 C 57.859375 -6.648438 64.195312 -7.800781 67.65625 -9.96875 C 71.125 -12.144531 72.3125 -14.992188 71.21875 -18.515625 C 70.8125 -19.734375 70.300781 -20.75 69.6875 -21.5625 C 69.082031 -22.382812 68.132812 -23.097656 66.84375 -23.703125 C 65.5625 -24.316406 63.898438 -24.925781 61.859375 -25.53125 C 59.828125 -26.144531 57.25 -26.859375 54.125 -27.671875 C 48.5625 -29.035156 43.710938 -30.289062 39.578125 -31.4375 C 35.441406 -32.59375 31.945312 -33.710938 29.09375 -34.796875 C 23.257812 -37.109375 18.785156 -39.890625 15.671875 -43.140625 C 13.492188 -45.304688 11.796875 -47.742188 10.578125 -50.453125 C 9.359375 -53.171875 8.613281 -55.988281 8.34375 -58.90625 C 8.070312 -61.820312 8.34375 -64.773438 9.15625 -67.765625 C 9.96875 -70.753906 11.257812 -73.601562 13.03125 -76.3125 C 16.28125 -81.195312 20.582031 -84.894531 25.9375 -87.40625 C 31.300781 -89.914062 36.832031 -91.644531 42.53125 -92.59375 Z M 42.53125 -92.59375 "/></g></g></g><g fill="#000000" fill-opacity="1"><g transform="translate(713.011846, 285.252656)"><g><path d="M 68.375 -74.484375 C 60.644531 -74.484375 54.234375 -72.820312 49.140625 -69.5 C 44.054688 -66.175781 40.769531 -60.644531 39.28125 -52.90625 L 39.078125 -51.890625 L 62.0625 -51.890625 L 85.265625 -52.09375 L 85.265625 -55.96875 C 84.992188 -61.664062 83.601562 -66.175781 81.09375 -69.5 C 78.582031 -72.820312 74.34375 -74.484375 68.375 -74.484375 Z M 55.765625 -93.203125 C 56.984375 -93.335938 58.609375 -93.4375 60.640625 -93.5 C 62.679688 -93.570312 65.125 -93.539062 67.96875 -93.40625 C 73.664062 -93.269531 79.257812 -92.625 84.75 -91.46875 C 90.25 -90.320312 95.269531 -88.492188 99.8125 -85.984375 C 104.363281 -83.472656 108.195312 -80.144531 111.3125 -76 C 114.4375 -71.863281 116.472656 -66.609375 117.421875 -60.234375 C 117.691406 -58.066406 117.925781 -55.351562 118.125 -52.09375 C 118.332031 -48.84375 118.4375 -44.976562 118.4375 -40.5 L 118.4375 -29.921875 L 39.078125 -29.921875 L 39.28125 -28.078125 C 39.6875 -24.015625 40.800781 -20.796875 42.625 -18.421875 C 44.457031 -16.046875 46.660156 -14.28125 49.234375 -13.125 C 51.816406 -11.96875 54.703125 -11.21875 57.890625 -10.875 C 61.078125 -10.539062 64.300781 -10.375 67.5625 -10.375 C 73.9375 -10.375 80.003906 -10.882812 85.765625 -11.90625 C 91.535156 -12.925781 97.40625 -14.519531 103.375 -16.6875 C 105.957031 -17.632812 108.160156 -18.476562 109.984375 -19.21875 C 111.816406 -19.96875 113.273438 -20.6875 114.359375 -21.375 C 115.046875 -21.78125 115.457031 -21.984375 115.59375 -21.984375 C 115.726562 -22.117188 115.863281 -22.1875 116 -22.1875 C 116 -22.050781 115.894531 -20.960938 115.6875 -18.921875 C 115.488281 -16.890625 115.117188 -13.835938 114.578125 -9.765625 C 113.890625 -5.148438 113.410156 -1.488281 113.140625 1.21875 C 112.867188 3.9375 112.664062 5.835938 112.53125 6.921875 L 112.125 11.1875 L 108.875 12.609375 C 102.226562 15.597656 95.507812 17.769531 88.71875 19.125 C 81.9375 20.476562 74.953125 21.15625 67.765625 21.15625 C 60.441406 21.15625 53.488281 20.441406 46.90625 19.015625 C 40.320312 17.597656 34.421875 15.257812 29.203125 12 C 23.984375 8.75 19.609375 4.515625 16.078125 -0.703125 C 12.546875 -5.929688 10.171875 -12.410156 8.953125 -20.140625 C 8.410156 -22.859375 8.140625 -28.488281 8.140625 -37.03125 C 8.140625 -45.582031 8.410156 -51.144531 8.953125 -53.71875 C 10.035156 -59.6875 12 -65.007812 14.84375 -69.6875 C 17.695312 -74.375 21.191406 -78.34375 25.328125 -81.59375 C 29.472656 -84.851562 34.125 -87.46875 39.28125 -89.4375 C 44.4375 -91.40625 49.929688 -92.660156 55.765625 -93.203125 Z M 55.765625 -93.203125 "/></g></g></g><g fill="#EE4266" fill-opacity="1"><g transform="translate(825.134539, 285.91541)"><g><path d="M 20.59375 -12.640625 C 20.59375 -12.910156 25.960938 -13.046875 36.703125 -13.046875 L 52.8125 -12.84375 L 52.8125 -8.359375 C 52.8125 -7.273438 52.8125 -5.304688 52.8125 -2.453125 C 52.8125 0.398438 52.742188 4.070312 52.609375 8.5625 L 52.609375 20.796875 L 36.5 20.796875 L 20.59375 20.59375 L 20.390625 4.28125 C 20.390625 -6.726562 20.457031 -12.367188 20.59375 -12.640625 Z M 20.59375 -12.640625 "/></g></g></g></svg>